<svg width="21" height="21" viewBox="0 0 21 21" fill="none" xmlns="http://www.w3.org/2000/svg">
<path d="M9.76106 5.45473C9.60881 4.91535 9.24162 4.48255 8.79714 4.17162C8.24661 3.78654 7.59805 3.59075 7.08641 3.6058C6.28512 3.62939 5.48928 4.02511 4.85394 4.6524C4.20305 5.29499 3.7311 6.17046 3.59366 7.13797C3.43054 8.28753 3.74977 9.51773 4.8166 11.1011C5.89536 12.7027 7.70956 14.6312 10.5003 17.1301C13.2909 14.6312 15.105 12.7027 16.1841 11.1011C17.2509 9.51748 17.5702 8.28727 17.4071 7.13797C17.2699 6.17046 16.7976 5.29474 16.1467 4.6524C15.5114 4.02511 14.7156 3.62939 13.9142 3.6058C13.4024 3.59075 12.7541 3.78654 12.2035 4.17162C11.7575 4.48359 11.389 4.91846 11.2381 5.46044C11.1292 5.85616 10.7109 6.0911 10.3036 5.9853C10.0281 5.91373 9.82791 5.70472 9.76106 5.45473ZM9.68686 2.97072C9.98427 3.17869 10.2608 3.42427 10.5001 3.70563C10.7394 3.42427 11.0159 3.17869 11.3133 2.97072C12.1369 2.39452 13.141 2.10227 13.9558 2.12638C15.166 2.16191 16.3324 2.72436 17.2333 3.61383C18.1025 4.47191 18.7335 5.64378 18.9176 6.94063C19.131 8.44519 18.7532 9.99591 17.4618 11.913C16.2473 13.7159 14.1977 15.8715 11.0138 18.6826C10.7259 18.9375 10.2805 18.9424 9.98664 18.6826C6.80272 15.8715 4.75307 13.7159 3.53868 11.913C2.24727 9.99591 1.86945 8.44519 2.08287 6.94063C2.26698 5.64378 2.8979 4.47191 3.76714 3.61383C4.66801 2.72436 5.83443 2.16217 7.04467 2.12638C7.85919 2.10252 8.863 2.39452 9.68686 2.97072Z" fill="#73645C"/>
</svg>
