<svg width="17" height="19" viewBox="0 0 17 19" fill="none" xmlns="http://www.w3.org/2000/svg">
<path d="M3.63141 13.9625C4.30433 13.3938 5.05641 12.9453 5.88766 12.6172C6.71891 12.2891 7.58975 12.125 8.50016 12.125C9.41058 12.125 10.2814 12.2891 11.1127 12.6172C11.9439 12.9453 12.696 13.3938 13.3689 13.9625C13.8307 13.3646 14.1903 12.6865 14.4476 11.9281C14.7049 11.1698 14.8335 10.3604 14.8335 9.5C14.8335 7.56042 14.2167 5.90885 12.983 4.54531C11.7493 3.18177 10.255 2.5 8.50016 2.5C6.7453 2.5 5.25103 3.18177 4.01735 4.54531C2.78367 5.90885 2.16683 7.56042 2.16683 9.5C2.16683 10.3604 2.29548 11.1698 2.55277 11.9281C2.81006 12.6865 3.16961 13.3646 3.63141 13.9625ZM8.50016 10.375C7.72169 10.375 7.06527 10.0797 6.53089 9.48906C5.99652 8.89844 5.72933 8.17292 5.72933 7.3125C5.72933 6.45208 5.99652 5.72656 6.53089 5.13594C7.06527 4.54531 7.72169 4.25 8.50016 4.25C9.27863 4.25 9.93506 4.54531 10.4694 5.13594C11.0038 5.72656 11.271 6.45208 11.271 7.3125C11.271 8.17292 11.0038 8.89844 10.4694 9.48906C9.93506 10.0797 9.27863 10.375 8.50016 10.375ZM8.50016 18.25C7.40502 18.25 6.37586 18.0203 5.41266 17.5609C4.44947 17.1016 3.61162 16.4781 2.89912 15.6906C2.18662 14.9031 1.62256 13.9771 1.20693 12.9125C0.791309 11.8479 0.583496 10.7104 0.583496 9.5C0.583496 8.28958 0.791309 7.15208 1.20693 6.0875C1.62256 5.02292 2.18662 4.09687 2.89912 3.30937C3.61162 2.52187 4.44947 1.89844 5.41266 1.43906C6.37586 0.979687 7.40502 0.75 8.50016 0.75C9.5953 0.75 10.6245 0.979687 11.5877 1.43906C12.5509 1.89844 13.3887 2.52187 14.1012 3.30937C14.8137 4.09687 15.3778 5.02292 15.7934 6.0875C16.209 7.15208 16.4168 8.28958 16.4168 9.5C16.4168 10.7104 16.209 11.8479 15.7934 12.9125C15.3778 13.9771 14.8137 14.9031 14.1012 15.6906C13.3887 16.4781 12.5509 17.1016 11.5877 17.5609C10.6245 18.0203 9.5953 18.25 8.50016 18.25Z" fill="#73645C"/>
</svg>
