<svg width="239" height="33" viewBox="0 0 239 33" fill="none" xmlns="http://www.w3.org/2000/svg">
<g clip-path="url(#clip0_1204_171)">
<path d="M29.3659 20.6931C28.1331 20.6931 27.1297 21.0661 26.5617 21.3362C26.5644 20.4861 26.5644 19.9712 26.5644 19.927C26.5644 19.7303 26.6682 19.7529 26.6682 19.7529C26.9145 19.7303 27.115 19.4677 27.115 19.2435C27.115 19.0268 26.9987 18.9885 26.8737 19.0014C26.7639 19.0111 26.7296 19.0014 26.7296 19.0014H16.2146H15.0889H4.57718C4.57718 19.0014 4.54185 19.0111 4.43422 19.0014C4.30703 18.9879 4.19234 19.0262 4.19234 19.2435C4.19234 19.4677 4.394 19.7308 4.6386 19.7529C4.6386 19.7529 4.74242 19.7303 4.74242 19.927C4.74242 19.9712 4.74242 20.4866 4.7435 21.3362C4.17549 21.0661 3.1721 20.6931 1.9366 20.6931C-0.00279307 20.6931 0.240718 22.0106 1.37457 22.0106C2.50461 22.0106 3.06936 22.2759 3.55421 22.8667C3.88197 23.2646 4.46249 23.3648 4.80656 23.3912C5.05279 26.1967 5.80995 29.0576 5.80995 29.0576C5.80995 29.0576 6.11054 29.8366 6.41819 30.2932C6.62691 30.6065 7.17699 31.6528 9.63602 32.0518C11.1188 32.3008 11.8363 32.4216 15.651 32.4227C19.4689 32.4216 20.1853 32.3008 21.6703 32.0518C24.1277 31.6528 24.6777 30.607 24.8875 30.2932C25.1941 29.8366 25.4909 29.0576 25.4909 29.0576C25.4909 29.0576 26.2535 26.1961 26.4959 23.3912C26.84 23.3648 27.4205 23.2646 27.7477 22.8667C28.2347 22.2759 28.8006 22.0106 29.9323 22.0106C31.0639 22.0106 31.3058 20.6931 29.3648 20.6931H29.3659Z" fill="#72645B"/>
<path d="M18.7773 7.9226C18.4757 9.42721 17.9707 9.83584 17.7402 9.79433C17.5511 9.78571 17.3473 9.56684 17.3239 9.34042C17.1945 8.15226 17.7544 7.44766 17.8696 7.31666C18.2256 6.91019 18.5664 6.63633 18.9757 6.38242C18.9573 7.04604 18.8431 7.59752 18.7773 7.9226ZM24.208 6.09832C23.3133 5.00504 21.6261 4.31446 19.7373 5.039C19.5258 3.69612 18.9214 2.56133 17.9234 1.64326C16.807 0.620058 15.3046 0.0502372 13.7343 0.00549255V-0.000976562H13.6805C13.6712 -0.000976562 13.662 0.00117981 13.6522 0.00117981C13.6429 0.00117981 13.6343 -0.000976562 13.6277 -0.000976562L13.6272 0.00225799C9.21137 0.055089 6.57568 3.23412 6.57568 6.41584C6.57568 9.51131 9.07113 12.5782 13.2761 12.79V11.8078C10.2207 11.5738 8.36886 9.0547 8.36886 6.41638C8.36886 3.65838 10.3941 1.00821 13.6897 0.985023H13.7348V0.97532C14.9844 0.905238 16.2536 1.26643 17.3451 2.26752C18.405 3.2422 18.8203 4.39478 18.9415 5.4196C18.2756 5.7851 17.7604 6.15007 17.226 6.76086C17.0081 7.01208 16.2036 7.81964 16.4738 9.43045C16.5814 10.0784 17.0836 10.6142 17.7038 10.6444C18.2218 10.6692 19.1567 10.3641 19.6177 8.08487C19.772 7.32259 19.8405 6.59967 19.8204 5.92311C21.5065 5.15868 22.8687 5.80882 23.5443 6.6331C24.1694 7.39268 24.5368 8.71615 23.5215 9.93935C22.368 11.3172 20.6906 12.2283 19.3448 12.9604C17.9109 13.7448 16.7771 14.3609 16.6602 15.299C16.5972 15.824 16.8651 16.3502 17.4761 16.9033L17.7902 17.1879L18.368 16.5664L18.0544 16.2774C17.6647 15.9248 17.4815 15.6316 17.5092 15.4014C17.5707 14.8946 18.6328 14.3157 19.7546 13.7049C21.1657 12.9367 22.9208 11.9835 24.1759 10.4789C25.2679 9.16845 25.282 7.40939 24.2085 6.09939L24.208 6.09832Z" fill="#D46229"/>
<path d="M53.0172 25.2351C52.6775 28.9235 50.5402 31.04 47.1533 31.04C41.1145 31.04 40.6465 24.5844 40.6465 22.607C40.6465 18.7503 41.7749 14.1529 47.1533 14.1529C50.3755 14.1529 52.7226 16.6376 53.1368 20.4813L53.1552 20.6565H55.0533V12.6289H53.3482L52.6394 14.3556C50.9321 12.9567 48.8911 12.1885 46.862 12.1885C40.759 12.1885 37.1172 16.084 37.1172 22.607C37.1172 29.1138 40.6508 32.9991 46.5679 32.9991C51.9616 32.9991 54.9778 30.3252 55.2892 25.2642L55.3017 25.0561H53.0346L53.0172 25.2351Z" fill="#4F4E51"/>
<path d="M67.3551 31.0395C62.0174 31.0395 60.1166 26.6841 60.1166 22.6064C60.1166 18.5196 62.0174 14.154 67.3551 14.154C72.6933 14.154 74.5952 18.5201 74.5952 22.6064C74.5952 26.6836 72.6933 31.0395 67.3551 31.0395ZM67.3551 12.1885C59.9568 12.1885 56.5879 17.588 56.5879 22.607C56.5879 27.6125 59.9568 32.9991 67.3551 32.9991C74.7545 32.9991 78.1256 27.6119 78.1256 22.607C78.1256 17.588 74.7545 12.1885 67.3551 12.1885Z" fill="#4F4E51"/>
<path d="M90.5408 31.0395C85.2063 31.0395 83.3045 26.6841 83.3045 22.6064C83.3045 18.5196 85.2063 14.154 90.5408 14.154C95.879 14.154 97.7819 18.5201 97.7819 22.6064C97.7819 26.6836 95.8784 31.0395 90.5408 31.0395ZM90.5408 12.1885C83.1463 12.1885 79.7773 17.588 79.7773 22.607C79.7773 27.6125 83.1463 32.9991 90.5408 32.9991C97.9418 32.9991 101.312 27.6119 101.312 22.607C101.312 17.588 97.9418 12.1885 90.5408 12.1885Z" fill="#4F4E51"/>
<path d="M122.045 29.4171L114.135 21.1965L118.958 16.8589C120.288 15.6637 121.534 14.6734 123.306 14.6734H124.793V12.7715H114.501V14.6734H116.57C117.351 14.6734 117.488 14.7888 117.488 15.0298C117.488 15.1867 117.304 15.4239 117.114 15.5829L109.125 22.7485V12.7715H102.38V14.6734H104.742C105.536 14.6734 105.891 15.0799 105.891 15.9867V29.2289C105.891 30.0942 105.525 30.5131 104.776 30.5131H102.38V32.4166H112.584V30.5131H110.252C109.494 30.5131 109.125 30.0942 109.125 29.2289V25.6025L111.872 23.1464L117.273 28.9297C117.446 29.1152 117.606 29.2731 117.745 29.4111C118.034 29.6974 118.247 29.905 118.247 30.071C118.247 30.492 117.362 30.5131 117.186 30.5131H114.821V32.4166H125.874V30.5131H124.389C123.503 30.5131 122.778 30.175 122.043 29.4171H122.045Z" fill="#4F4E51"/>
<path d="M145.483 14.674H147.908C148.712 14.674 149.055 15.0675 149.055 15.9872V21.5113H138.968V15.9872C138.968 15.0799 139.322 14.674 140.116 14.674H142.542V12.7715H132.187V14.674H134.585C135.389 14.674 135.734 15.0675 135.734 15.9872V29.2295C135.734 30.0936 135.366 30.5125 134.613 30.5125H132.187V32.4171H142.542V30.5125H140.087C139.333 30.5125 138.967 30.0936 138.967 29.2295V23.4191H149.055V29.2295C149.055 30.0936 148.688 30.5125 147.933 30.5125H145.482V32.4171H155.834V30.5125H153.407C152.656 30.5125 152.29 30.0936 152.29 29.2295V15.9872C152.29 15.0675 152.635 14.674 153.442 14.674H155.834V12.7715H145.482V14.674H145.483Z" fill="#4F4E51"/>
<path d="M167.614 31.0395C162.273 31.0395 160.372 26.6841 160.372 22.6064C160.372 18.5196 162.274 14.154 167.614 14.154C172.95 14.154 174.851 18.5201 174.851 22.6064C174.851 26.6836 172.95 31.0395 167.614 31.0395ZM167.614 12.1885C160.212 12.1885 156.84 17.588 156.84 22.607C156.84 27.6125 160.212 32.9991 167.614 32.9991C175.01 32.9991 178.38 27.6119 178.38 22.607C178.38 17.588 175.01 12.1885 167.614 12.1885Z" fill="#4F4E51"/>
<path d="M210.533 20.8506C207.487 20.3007 204.855 19.8258 204.855 17.4991C204.855 15.3109 206.355 14.154 209.195 14.154C212.101 14.154 215.203 16.0284 215.587 20.2155L215.602 20.3945H217.504V12.63H215.835L215.049 14.2402C213.438 12.8224 211.546 12.1895 208.962 12.1895C203.762 12.1895 201.914 15.2225 201.914 17.8204C201.914 22.4835 206.07 23.2372 209.734 23.9019C212.872 24.4711 215.585 24.9606 215.585 27.5736C215.585 30.7893 211.856 31.0394 210.715 31.0394C207.187 31.0394 204.227 28.1672 203.832 24.3633L203.811 24.1849H201.914V32.5629H203.768L204.554 30.5974C206.236 32.1915 208.269 32.9985 210.603 32.9985C215.568 32.9985 218.529 30.7316 218.529 26.9359C218.529 22.2964 214.281 21.5282 210.533 20.8506Z" fill="#4F4E51"/>
<path d="M232.034 14.674C236.155 14.674 236.437 16.6864 236.581 20.2374L236.589 20.4256H238.5V12.7715H219.422V14.674H221.668C222.465 14.674 222.819 15.0799 222.819 15.9872V29.2295C222.819 30.0936 222.453 30.5125 221.699 30.5125H219.335V32.4171H238.5V24.2138H236.586L236.58 24.4035C236.435 28.5313 236.18 30.5125 232.033 30.5125H226.054V23.1587H228.286C230.41 23.1587 230.694 23.6008 230.81 27.1168L230.818 27.3065H232.73V17.4487H230.818L230.81 17.6374C230.694 20.8126 230.387 21.252 228.286 21.252H226.054V14.674H232.034Z" fill="#4F4E51"/>
<path d="M191.545 14.674H193.942C194.748 14.674 195.091 15.0675 195.091 15.9872V25.107C195.091 28.5642 194.243 30.8667 190.106 30.8667C186.84 30.8667 185.386 29.3497 185.386 25.9491V12.7715H178.722V14.674H181.001C181.806 14.674 182.149 15.0675 182.149 15.9872V26.5863C182.149 30.6629 184.74 32.9999 189.257 32.9999C195.165 32.9999 197.363 30.7837 197.363 24.8192V15.9872C197.363 15.0675 197.705 14.674 198.511 14.674H200.812V12.7715H191.545V14.674Z" fill="#4F4E51"/>
</g>
<defs>
<clipPath id="clip0_1204_171">
<rect width="238" height="33" fill="white" transform="translate(0.5)"/>
</clipPath>
</defs>
</svg>
