<svg width="757" height="125" viewBox="0 0 757 125" fill="none" xmlns="http://www.w3.org/2000/svg">
<g clip-path="url(#clip0_1207_970)">
<g clip-path="url(#clip1_1207_970)">
<path d="M91.846 65.8435C87.9235 65.8435 84.7309 67.0303 82.9236 67.8897C82.9322 65.1848 82.9322 63.5465 82.9322 63.4059C82.9322 62.78 83.2625 62.8519 83.2625 62.8519C84.0461 62.78 84.6841 61.9445 84.6841 61.2311C84.6841 60.5416 84.314 60.4197 83.9163 60.4608C83.567 60.4917 83.4578 60.4608 83.4578 60.4608H50.001H46.4192H12.9728C12.9728 60.4608 12.8604 60.4917 12.518 60.4608C12.1133 60.4178 11.7484 60.5397 11.7484 61.2311C11.7484 61.9445 12.39 62.7816 13.1683 62.8519C13.1683 62.8519 13.4986 62.78 13.4986 63.4059C13.4986 63.5465 13.4986 65.1864 13.502 67.8897C11.6947 67.0303 8.50214 65.8435 4.571 65.8435C-1.5998 65.8435 -0.824988 70.0355 2.78272 70.0355C6.3783 70.0355 8.17524 70.8797 9.71794 72.7595C10.7608 74.0255 12.6079 74.3443 13.7027 74.4283C14.4862 83.3549 16.8953 92.4578 16.8953 92.4578C16.8953 92.4578 17.8517 94.9364 18.8306 96.3892C19.4947 97.3861 21.245 100.715 29.0692 101.985C33.7871 102.777 36.07 103.161 48.2077 103.165C60.3556 103.161 62.635 102.777 67.36 101.985C75.179 100.715 76.929 97.3877 77.5966 96.3892C78.5721 94.9364 79.5165 92.4578 79.5165 92.4578C79.5165 92.4578 81.943 83.353 82.7142 74.4283C83.8091 74.3443 85.6561 74.0255 86.6972 72.7595C88.2468 70.8797 90.0474 70.0355 93.6482 70.0355C97.2488 70.0355 98.0185 65.8435 91.8425 65.8435H91.846Z" fill="#F2F2F2"/>
<path d="M58.1549 25.2089C57.1952 29.9963 55.5884 31.2965 54.855 31.1644C54.2533 31.137 53.6049 30.4406 53.5304 29.7202C53.1187 25.9397 54.9002 23.6978 55.2667 23.2809C56.3995 21.9876 57.4838 21.1163 58.7862 20.3084C58.7276 22.4199 58.3642 24.1746 58.1549 25.2089ZM75.4344 19.4044C72.5876 15.9258 67.2192 13.7285 61.2094 16.0338C60.5365 11.761 58.6134 8.15035 55.4379 5.22922C51.8857 1.97358 47.1054 0.160512 42.109 0.0181421V-0.00244141H41.9378C41.9082 -0.00244141 41.8789 0.00441977 41.8477 0.00441977C41.8182 0.00441977 41.7908 -0.00244141 41.7698 -0.00244141L41.7682 0.00785034C27.7178 0.175949 19.3315 10.291 19.3315 20.4147C19.3315 30.2639 27.2716 40.0224 40.6511 40.6963V37.5711C30.9295 36.8265 25.0371 28.8111 25.0371 20.4164C25.0371 11.641 31.4812 3.2086 41.9671 3.13483H42.1106V3.10396C46.0866 2.88097 50.1249 4.03021 53.5979 7.2155C56.9703 10.3168 58.2917 13.9841 58.6773 17.2448C56.5586 18.4078 54.9193 19.5691 53.2189 21.5125C52.5256 22.3118 49.9658 24.8813 50.8256 30.0066C51.1679 32.0685 52.7658 33.7733 54.7392 33.8694C56.3874 33.9483 59.3621 32.9775 60.8289 25.7253C61.3198 23.2998 61.5378 20.9996 61.4738 18.8469C66.8387 16.4146 71.173 18.4833 73.3226 21.106C75.3116 23.5228 76.4806 27.7339 73.2501 31.6259C69.5798 36.0101 64.2427 38.909 59.9606 41.2385C55.3982 43.7343 51.7906 45.6946 51.4187 48.6795C51.2182 50.3499 52.0706 52.0242 54.0147 53.784L55.0141 54.6896L56.8526 52.7121L55.8547 51.7925C54.6148 50.6706 54.0319 49.7377 54.12 49.0053C54.3157 47.3927 57.6951 45.5508 61.2645 43.6073C65.7543 41.1631 71.3387 38.1301 75.3322 33.3428C78.8068 29.173 78.8517 23.576 75.436 19.4078L75.4344 19.4044Z" fill="#FF935E"/>
<path d="M167.1 80.2951C166.019 92.0309 159.219 98.7652 148.442 98.7652C129.228 98.7652 127.739 78.2247 127.739 71.933C127.739 59.6617 131.329 45.0336 148.442 45.0336C158.695 45.0336 166.163 52.9394 167.481 65.1694L167.539 65.7268H173.579V40.1845H168.153L165.898 45.6785C160.466 41.2275 153.972 38.7832 147.515 38.7832C128.097 38.7832 116.509 51.178 116.509 71.933C116.509 92.6364 127.753 104.999 146.58 104.999C163.741 104.999 173.338 96.4909 174.329 80.3877L174.369 79.7256H167.156L167.1 80.2951Z" fill="white"/>
<path d="M212.721 98.7637C195.737 98.7637 189.689 84.9056 189.689 71.9311C189.689 58.9276 195.737 45.0371 212.721 45.0371C229.706 45.0371 235.757 58.9292 235.757 71.9311C235.757 84.904 229.706 98.7637 212.721 98.7637ZM212.721 38.7832C189.181 38.7832 178.461 55.9634 178.461 71.933C178.461 87.8596 189.181 104.999 212.721 104.999C236.264 104.999 246.99 87.8577 246.99 71.933C246.99 55.9634 236.264 38.7832 212.721 38.7832Z" fill="white"/>
<path d="M286.494 98.7637C269.52 98.7637 263.469 84.9056 263.469 71.9311C263.469 58.9276 269.52 45.0371 286.494 45.0371C303.479 45.0371 309.533 58.9292 309.533 71.9311C309.533 84.904 303.477 98.7637 286.494 98.7637ZM286.494 38.7832C262.966 38.7832 252.246 55.9634 252.246 71.933C252.246 87.8596 262.966 104.999 286.494 104.999C310.042 104.999 320.766 87.8577 320.766 71.933C320.766 55.9634 310.042 38.7832 286.494 38.7832Z" fill="white"/>
<path d="M386.734 93.598L361.566 67.4416L376.912 53.6401C381.144 49.8372 385.108 46.6863 390.746 46.6863H395.478V40.6348H362.73V46.6863H369.314C371.799 46.6863 372.234 47.0534 372.234 47.8203C372.234 48.3195 371.649 49.0742 371.044 49.5801L345.625 72.3798V40.6348H324.164V46.6863H331.679C334.205 46.6863 335.335 47.9797 335.335 50.8649V92.9992C335.335 95.7524 334.17 97.0853 331.787 97.0853H324.164V103.142H356.631V97.0853H349.211C346.799 97.0853 345.625 95.7524 345.625 92.9992V81.4607L354.365 73.6458L371.55 92.0472C372.101 92.6374 372.61 93.1399 373.052 93.5789C373.972 94.4899 374.649 95.1504 374.649 95.6786C374.649 97.0182 371.834 97.0853 371.274 97.0853H363.749V103.142H398.917V97.0853H394.192C391.373 97.0853 389.066 96.0095 386.728 93.598H386.734Z" fill="white"/>
<path d="M461.309 46.6882H469.025C471.583 46.6882 472.675 47.9402 472.675 50.8665V68.4432H440.58V50.8665C440.58 47.9797 441.706 46.6882 444.233 46.6882H451.952V40.6348H419.004V46.6882H426.634C429.192 46.6882 430.29 47.9402 430.29 50.8665V93.0011C430.29 95.7505 429.119 97.0834 426.723 97.0834H419.004V103.143H451.952V97.0834H444.14C441.741 97.0834 440.577 95.7505 440.577 93.0011V74.5135H472.675V93.0011C472.675 95.7505 471.507 97.0834 469.105 97.0834H461.306V103.143H494.244V97.0834H486.522C484.133 97.0834 482.968 95.7505 482.968 93.0011V50.8665C482.968 47.9402 484.066 46.6882 486.633 46.6882H494.244V40.6348H461.306V46.6882H461.309Z" fill="white"/>
<path d="M531.726 98.7637C514.732 98.7637 508.683 84.9056 508.683 71.9311C508.683 58.9276 514.735 45.0371 531.726 45.0371C548.704 45.0371 554.753 58.9292 554.753 71.9311C554.753 84.904 548.704 98.7637 531.726 98.7637ZM531.726 38.7832C508.174 38.7832 497.445 55.9634 497.445 71.933C497.445 87.8596 508.174 104.999 531.726 104.999C555.259 104.999 565.982 87.8577 565.982 71.933C565.982 55.9634 555.259 38.7832 531.726 38.7832Z" fill="white"/>
<path d="M668.287 66.3417C658.595 64.5921 650.221 63.081 650.221 55.6779C650.221 48.7154 654.993 45.0344 664.03 45.0344C673.276 45.0344 683.146 50.9984 684.368 64.321L684.416 64.8905H690.467V40.1853H685.157L682.656 45.3086C677.53 40.7975 671.51 38.7837 663.288 38.7837C646.743 38.7837 640.863 48.4341 640.863 56.7002C640.863 71.5373 654.086 73.9355 665.745 76.0504C675.729 77.8615 684.361 79.419 684.361 87.7331C684.361 97.9649 672.496 98.7606 668.866 98.7606C657.641 98.7606 648.222 89.6218 646.966 77.5185L646.899 76.9509H640.863V103.608H646.762L649.263 97.3543C654.615 102.426 661.083 104.994 668.51 104.994C684.307 104.994 693.729 97.7813 693.729 85.7041C693.729 70.942 680.212 68.4977 668.287 66.3417Z" fill="white"/>
<path d="M736.699 46.6882C749.812 46.6882 750.709 53.0913 751.167 64.3899L751.193 64.9887H757.273V40.6348H696.57V46.6882H703.717C706.253 46.6882 707.379 47.9797 707.379 50.8665V93.0011C707.379 95.7505 706.214 97.0834 703.815 97.0834H696.293V103.143H757.273V77.0421H751.183L751.164 77.6457C750.703 90.7796 749.891 97.0834 736.696 97.0834H717.672V73.6849H724.774C731.532 73.6849 732.436 75.0916 732.805 86.2789L732.83 86.8825H738.914V55.5168H732.83L732.805 56.1172C732.436 66.2201 731.459 67.6182 724.774 67.6182H717.672V46.6882H736.699Z" fill="white"/>
<path d="M607.871 46.6882H615.498C618.062 46.6882 619.154 47.9402 619.154 50.8665V79.8841C619.154 90.8843 616.455 98.2104 603.292 98.2104C592.9 98.2104 588.274 93.3836 588.274 82.5635V40.6348H567.07V46.6882H574.322C576.883 46.6882 577.974 47.9402 577.974 50.8665V84.5909C577.974 97.5619 586.219 104.998 600.591 104.998C619.389 104.998 626.383 97.9463 626.383 78.9684V50.8665C626.383 47.9402 627.471 46.6882 630.035 46.6882H637.357V40.6348H607.871V46.6882Z" fill="white"/>
</g>
</g>
<defs>
<clipPath id="clip0_1207_970">
<rect width="757" height="125" fill="white"/>
</clipPath>
<clipPath id="clip1_1207_970">
<rect width="757.273" height="105" fill="white"/>
</clipPath>
</defs>
</svg>
